:SAMPLES-PER-SECOND 30
:FULLY-SPECIFIED
:DEGREES
183
root  34.96973233 36.50176281 -14.72418928 11.20410824 6.361512661 4.428173542
lowerback  -8.000169754 3.492310286 3.852900028
upperback  -4.015590191 4.079380035 -4.4167099
thorax  0.9067879915 1.814970016 -6.40557003
lowerneck  -17.13680077 5.344039917 7.553639889
upperneck  16.0991993 4.53453064 2.937599897
head  7.941609859 2.83423996 0.2842838466
lclavicle  0 -4.497500157e-015 -2.743230041e-014
lhumerus  -41.53350067 23.04730034 71.09049988
lradius  -0.09012425691 -6.507048965e-006 25.97180176
lwrist  4.824992743e-007 -3.790274832e-007 -30.44419861
lhand  -4.444376243e-031 -37.39049911 -10.64420033
lfingers  90 7.125020027 -90
lthumb  95.03917786 -25.46282472 101.5906279
rclavicle  0 -4.497500157e-015 -2.743230041e-014
rhumerus  69.93509674 12.94970131 -56.99020386
rradius  -5.16745672e-007 2.214343908e-008 41.42750168
rwrist  -3.062178075e-005 0.01361527108 -155.8150024
rhand  -1.771090098e-031 4.527910233 -7.418739796
rfingers  -90 -7.125020027 -90
rthumb  -84.9842808 -8.63851772 -59.70133041
rfemur  -14.19474506 12.65904999 13.48849869
rtibia  -2.296649456 1.048114181 23.12693977
rfoot  -1.995848894 -17.08335876 -42.3970871
rtoes  3.835383386 19.64359766 -101.2782295
lfemur  -11.16069031 -20.53383064 -19.57544708
ltibia  3.561582804 1.589692593 14.42178249
lfoot  1.043423295 -28.20823097 31.98053741
ltoes  -8.663773519 -18.09572501 -116.1312943
184
root  34.96498949 36.50101189 -14.72185991 11.23281574 6.484801769 4.447080135
lowerback  -7.968899727 3.513119936 3.893029451
upperback  -4.018139839 4.106289864 -4.431970119
thorax  0.8943780065 1.828060031 -6.443490028
lowerneck  -17.15360069 5.321790218 7.592169762
upperneck  16.06570053 4.496900082 2.924520016
head  7.933949947 2.816869974 0.269238919
lclavicle  0 -4.497500157e-015 -2.743230041e-014
lhumerus  -41.5766983 23.01639938 71.07389832
lradius  -0.09138178825 -6.507048965e-006 26.03599739
lwrist  4.824992743e-007 -3.790274832e-007 -30.46290016
lhand  -4.445669426e-031 -37.41230011 -10.62590027
lfingers  90 7.125020027 -90
lthumb  95.04530381 -25.44412997 101.6121489
rclavicle  0 -4.497500157e-015 -2.743230041e-014
rhumerus  70.01180267 12.85019875 -57.31469727
rradius  -5.16745672e-007 2.214343908e-008 40.9992981
rwrist  -3.062178075e-005 0.01355561055 -155.470993
rhand  -1.771604892e-031 4.73348999 -7.536709785
rfingers  -90 -7.125020027 -90
rthumb  -84.99697132 -8.550232453 -59.51006918
rfemur  -14.21412086 12.56981754 13.50073814
rtibia  -2.320112705 1.035937548 23.15479851
rfoot  -2.035594225 -17.09093475 -42.46549225
rtoes  3.868106619 19.63742429 -101.375586
lfemur  -11.25511169 -20.63557434 -19.54399109
ltibia  3.535083294 1.576635361 14.50153542
lfoot  1.03519547 -28.20766258 31.90751076
ltoes  -8.660704342 -18.09715588 -116.1214134
185
root  34.95928547 36.50045019 -14.7198204 11.24946308 6.607699871 4.446195602
lowerback  -7.914559841 3.522789955 3.947859764
upperback  -4.021850109 4.117990017 -4.4541502
thorax  0.8673840165 1.832929969 -6.500010014
lowerneck  -17.22649956 5.325469971 7.713029861
upperneck  16.08650017 4.484099865 2.822639942
head  7.959010124 2.809770107 0.21735093
lclavicle  0 -4.497500157e-015 -2.743230041e-014
lhumerus  -41.57849884 22.96249962 71.09059906
lradius  -0.09264279902 -6.507048965e-006 26.06029892
lwrist  4.824992743e-007 -3.790274832e-007 -30.37389946
lhand  -4.448129075e-031 -37.45370102 -10.60210037
lfingers  90 7.125020027 -90
lthumb  95.05933568 -25.41926486 101.6540681
rclavicle  0 -4.497500157e-015 -2.743230041e-014
rhumerus  70.08370209 12.80930042 -57.81489944
rradius  -5.16745672e-007 2.214343908e-008 40.59949875
rwrist  -3.062178075e-005 0.0134959491 -154.875
rhand  -1.771699018e-031 4.77011013 -7.722139835
rfingers  -90 -7.125020027 -90
rthumb  -85.08363194 -8.392975405 -59.48834758
rfemur  -14.21551418 12.386446 13.55581188
rtibia  -2.335548401 1.019831538 23.16407967
rfoot  -2.037689924 -17.13441277 -42.41643906
rtoes  3.849342975 19.64097082 -101.3197578
lfemur  -11.32052708 -20.71508408 -19.48357201
ltibia  3.520287514 1.578983784 14.55272865
lfoot  1.037818074 -28.21667862 31.85930824
ltoes  -8.657150494 -18.0988119 -116.1099731
186
root  34.95399595 36.49494742 -14.71809778 11.25584984 6.739300251 4.447601318
lowerback  -7.873589993 3.523780107 3.981410265
upperback  -4.036990166 4.117980003 -4.458749771
thorax  0.831561029 1.831290007 -6.526619911
lowerneck  -17.28370094 5.320950031 7.797399998
upperneck  16.1121006 4.468240261 2.734869957
head  7.981440067 2.800369978 0.1750600338
lclavicle  0 -4.497500157e-015 -2.743230041e-014
lhumerus  -41.63710022 23.03230095 71.03919983
lradius  -0.09390725195 -6.507048965e-006 26.07550049
lwrist  4.824992743e-007 -3.790274832e-007 -30.51759911
lhand  -4.448813043e-031 -37.46519852 -10.59790039
lfingers  90 7.125020027 -90
lthumb  95.06378439 -25.41475872 101.6659647
rclavicle  0 -4.497500157e-015 -2.743230041e-014
rhumerus  70.1364975 12.81980038 -58.23669434
rradius  -5.16745672e-007 2.214343908e-008 40.2594986
rwrist  -3.062178075e-005 0.01343628578 -154.2949982
rhand  -1.771966062e-031 4.872489929 -7.792300224
rfingers  -90 -7.125020027 -90
rthumb  -85.09620713 -8.339586016 -59.39396935
rfemur  -14.2185955 12.23449326 13.59783936
rtibia  -2.351730347 0.9844678044 23.19211006
rfoot  -2.070731878 -17.2291832 -42.42328262
rtoes  3.829649332 19.64467379 -101.2611729
lfemur  -11.31321526 -20.81022835 -19.45339203
ltibia  3.541097403 1.604125381 14.521842
lfoot  1.054923296 -28.24458694 31.86527061
ltoes  -8.670104453 -18.09277149 -116.1516784
